<svg id="visual" viewBox="0 0 900 450" width="900" height="450" xmlns="http://www.w3.org/2000/svg" xmlns:xlink="http://www.w3.org/1999/xlink" version="1.1"><rect x="0" y="0" width="900" height="450" fill="#6CE5E8"></rect><defs><linearGradient id="grad1_0" x1="50%" y1="0%" x2="100%" y2="100%"><stop offset="10%" stop-color="#009496" stop-opacity="1"></stop><stop offset="90%" stop-color="#009496" stop-opacity="1"></stop></linearGradient></defs><defs><linearGradient id="grad1_1" x1="50%" y1="0%" x2="100%" y2="100%"><stop offset="10%" stop-color="#009496" stop-opacity="1"></stop><stop offset="90%" stop-color="#1c9fa1" stop-opacity="1"></stop></linearGradient></defs><defs><linearGradient id="grad1_2" x1="50%" y1="0%" x2="100%" y2="100%"><stop offset="10%" stop-color="#2dabad" stop-opacity="1"></stop><stop offset="90%" stop-color="#1c9fa1" stop-opacity="1"></stop></linearGradient></defs><defs><linearGradient id="grad1_3" x1="50%" y1="0%" x2="100%" y2="100%"><stop offset="10%" stop-color="#2dabad" stop-opacity="1"></stop><stop offset="90%" stop-color="#3bb6b8" stop-opacity="1"></stop></linearGradient></defs><defs><linearGradient id="grad1_4" x1="50%" y1="0%" x2="100%" y2="100%"><stop offset="10%" stop-color="#48c2c4" stop-opacity="1"></stop><stop offset="90%" stop-color="#3bb6b8" stop-opacity="1"></stop></linearGradient></defs><defs><linearGradient id="grad1_5" x1="50%" y1="0%" x2="100%" y2="100%"><stop offset="10%" stop-color="#48c2c4" stop-opacity="1"></stop><stop offset="90%" stop-color="#54cdd0" stop-opacity="1"></stop></linearGradient></defs><defs><linearGradient id="grad1_6" x1="50%" y1="0%" x2="100%" y2="100%"><stop offset="10%" stop-color="#60d9dc" stop-opacity="1"></stop><stop offset="90%" stop-color="#54cdd0" stop-opacity="1"></stop></linearGradient></defs><defs><linearGradient id="grad1_7" x1="50%" y1="0%" x2="100%" y2="100%"><stop offset="10%" stop-color="#60d9dc" stop-opacity="1"></stop><stop offset="90%" stop-color="#6ce5e8" stop-opacity="1"></stop></linearGradient></defs><defs><linearGradient id="grad2_0" x1="0%" y1="0%" x2="50%" y2="100%"><stop offset="10%" stop-color="#009496" stop-opacity="1"></stop><stop offset="90%" stop-color="#009496" stop-opacity="1"></stop></linearGradient></defs><defs><linearGradient id="grad2_1" x1="0%" y1="0%" x2="50%" y2="100%"><stop offset="10%" stop-color="#1c9fa1" stop-opacity="1"></stop><stop offset="90%" stop-color="#009496" stop-opacity="1"></stop></linearGradient></defs><defs><linearGradient id="grad2_2" x1="0%" y1="0%" x2="50%" y2="100%"><stop offset="10%" stop-color="#1c9fa1" stop-opacity="1"></stop><stop offset="90%" stop-color="#2dabad" stop-opacity="1"></stop></linearGradient></defs><defs><linearGradient id="grad2_3" x1="0%" y1="0%" x2="50%" y2="100%"><stop offset="10%" stop-color="#3bb6b8" stop-opacity="1"></stop><stop offset="90%" stop-color="#2dabad" stop-opacity="1"></stop></linearGradient></defs><defs><linearGradient id="grad2_4" x1="0%" y1="0%" x2="50%" y2="100%"><stop offset="10%" stop-color="#3bb6b8" stop-opacity="1"></stop><stop offset="90%" stop-color="#48c2c4" stop-opacity="1"></stop></linearGradient></defs><defs><linearGradient id="grad2_5" x1="0%" y1="0%" x2="50%" y2="100%"><stop offset="10%" stop-color="#54cdd0" stop-opacity="1"></stop><stop offset="90%" stop-color="#48c2c4" stop-opacity="1"></stop></linearGradient></defs><defs><linearGradient id="grad2_6" x1="0%" y1="0%" x2="50%" y2="100%"><stop offset="10%" stop-color="#54cdd0" stop-opacity="1"></stop><stop offset="90%" stop-color="#60d9dc" stop-opacity="1"></stop></linearGradient></defs><defs><linearGradient id="grad2_7" x1="0%" y1="0%" x2="50%" y2="100%"><stop offset="10%" stop-color="#6ce5e8" stop-opacity="1"></stop><stop offset="90%" stop-color="#60d9dc" stop-opacity="1"></stop></linearGradient></defs><g transform="translate(900, 0)"><path d="M0 360C-54.7 336.9 -109.4 313.8 -165.5 286.7C-221.6 259.5 -279.1 228.4 -311.8 180C-344.4 131.6 -352.2 65.8 -360 0L0 0Z" fill="#66dfe2"></path><path d="M0 315C-47.9 294.8 -95.7 274.5 -144.8 250.8C-193.9 227.1 -244.2 199.9 -272.8 157.5C-301.4 115.1 -308.2 57.6 -315 0L0 0Z" fill="#5ad3d6"></path><path d="M0 270C-41 252.7 -82 235.3 -124.1 215C-166.2 194.7 -209.3 171.3 -233.8 135C-258.3 98.7 -264.2 49.3 -270 0L0 0Z" fill="#4ec7ca"></path><path d="M0 225C-34.2 210.6 -68.4 196.1 -103.4 179.2C-138.5 162.2 -174.4 142.8 -194.9 112.5C-215.3 82.2 -220.1 41.1 -225 0L0 0Z" fill="#42bcbe"></path><path d="M0 180C-27.3 168.4 -54.7 156.9 -82.7 143.3C-110.8 129.8 -139.6 114.2 -155.9 90C-172.2 65.8 -176.1 32.9 -180 0L0 0Z" fill="#35b0b3"></path><path d="M0 135C-20.5 126.3 -41 117.7 -62.1 107.5C-83.1 97.3 -104.7 85.7 -116.9 67.5C-129.2 49.3 -132.1 24.7 -135 0L0 0Z" fill="#25a5a7"></path><path d="M0 90C-13.7 84.2 -27.3 78.4 -41.4 71.7C-55.4 64.9 -69.8 57.1 -77.9 45C-86.1 32.9 -88.1 16.4 -90 0L0 0Z" fill="#119a9c"></path><path d="M0 45C-6.8 42.1 -13.7 39.2 -20.7 35.8C-27.7 32.4 -34.9 28.6 -39 22.5C-43.1 16.4 -44 8.2 -45 0L0 0Z" fill="#009496"></path></g><g transform="translate(0, 450)"><path d="M0 -360C47.2 -323.9 94.5 -287.9 151.5 -262.4C208.5 -236.9 275.4 -222 311.8 -180C348.2 -138 354.1 -69 360 0L0 0Z" fill="#66dfe2"></path><path d="M0 -315C41.3 -283.5 82.7 -251.9 132.6 -229.6C182.5 -207.3 241 -194.2 272.8 -157.5C304.6 -120.8 309.8 -60.4 315 0L0 0Z" fill="#5ad3d6"></path><path d="M0 -270C35.4 -243 70.8 -215.9 113.6 -196.8C156.4 -177.7 206.5 -166.5 233.8 -135C261.1 -103.5 265.6 -51.8 270 0L0 0Z" fill="#4ec7ca"></path><path d="M0 -225C29.5 -202.5 59 -179.9 94.7 -164C130.3 -148.1 172.1 -138.7 194.9 -112.5C217.6 -86.3 221.3 -43.1 225 0L0 0Z" fill="#42bcbe"></path><path d="M0 -180C23.6 -162 47.2 -143.9 75.7 -131.2C104.3 -118.5 137.7 -111 155.9 -90C174.1 -69 177 -34.5 180 0L0 0Z" fill="#35b0b3"></path><path d="M0 -135C17.7 -121.5 35.4 -108 56.8 -98.4C78.2 -88.8 103.3 -83.2 116.9 -67.5C130.6 -51.8 132.8 -25.9 135 0L0 0Z" fill="#25a5a7"></path><path d="M0 -90C11.8 -81 23.6 -72 37.9 -65.6C52.1 -59.2 68.8 -55.5 77.9 -45C87 -34.5 88.5 -17.3 90 0L0 0Z" fill="#119a9c"></path><path d="M0 -45C5.9 -40.5 11.8 -36 18.9 -32.8C26.1 -29.6 34.4 -27.7 39 -22.5C43.5 -17.3 44.3 -8.6 45 0L0 0Z" fill="#009496"></path></g></svg>